<mxfile host="Electron" agent="Mozilla/5.0 (Windows NT 10.0; Win64; x64) AppleWebKit/537.36 (KHTML, like Gecko) draw.io/26.1.1 Chrome/132.0.6834.210 Electron/34.3.3 Safari/537.36" version="26.1.1">
  <diagram name="Page-1" id="i773-z5fooT3T3S39814">
    <mxGraphModel dx="1286" dy="859" grid="1" gridSize="10" guides="1" tooltips="1" connect="1" arrows="1" fold="1" page="1" pageScale="1" pageWidth="850" pageHeight="1100" math="0" shadow="0">
      <root>
        <mxCell id="0" />
        <mxCell id="1" parent="0" />
        <mxCell id="z0f8_SjItQ-B4fkTCba1-18" value="&lt;blockquote style=&quot;margin: 0 0 0 40px; border: none; padding: 0px;&quot;&gt;&lt;b&gt;&lt;font style=&quot;font-size: 14px;&quot;&gt;WRITE:&amp;nbsp;&lt;/font&gt;&lt;/b&gt;&lt;/blockquote&gt;&lt;blockquote style=&quot;margin: 0 0 0 40px; border: none; padding: 0px;&quot;&gt;&lt;b&gt;&lt;font style=&quot;font-size: 14px;&quot;&gt;&lt;i&gt;/iac/svc/{SVC-X-A&lt;/i&gt;&lt;/font&gt;&lt;/b&gt;&lt;b style=&quot;&quot;&gt;&lt;font style=&quot;font-size: 14px;&quot;&gt;&lt;i&gt;-NICKNAME&lt;/i&gt;&lt;/font&gt;&lt;/b&gt;&lt;b&gt;&lt;font style=&quot;font-size: 14px;&quot;&gt;&lt;i&gt;}/runtime&lt;/i&gt;&lt;/font&gt;&lt;/b&gt;&lt;/blockquote&gt;" style="text;html=1;align=right;verticalAlign=middle;whiteSpace=wrap;rounded=0;strokeColor=none;" parent="1" vertex="1">
          <mxGeometry x="20" y="640" width="313.14" height="60" as="geometry" />
        </mxCell>
        <mxCell id="z0f8_SjItQ-B4fkTCba1-22" value="AWS Cloud" style="points=[[0,0],[0.25,0],[0.5,0],[0.75,0],[1,0],[1,0.25],[1,0.5],[1,0.75],[1,1],[0.75,1],[0.5,1],[0.25,1],[0,1],[0,0.75],[0,0.5],[0,0.25]];outlineConnect=0;gradientColor=none;html=1;whiteSpace=wrap;fontSize=12;fontStyle=0;container=0;pointerEvents=0;collapsible=0;recursiveResize=0;shape=mxgraph.aws4.group;grIcon=mxgraph.aws4.group_aws_cloud_alt;strokeColor=#232F3E;fillColor=none;verticalAlign=top;align=left;spacingLeft=30;fontColor=#232F3E;dashed=0;" parent="1" vertex="1">
          <mxGeometry x="20" y="520" width="840" height="460" as="geometry" />
        </mxCell>
        <mxCell id="kKFCKPupe_m7L3E-sRk--1" value="&lt;b&gt;&lt;font style=&quot;font-size: 14px;&quot;&gt;ServiceX-A&lt;/font&gt;&lt;/b&gt;" style="whiteSpace=wrap;html=1;aspect=fixed;" vertex="1" parent="1">
          <mxGeometry x="105" y="580" width="80" height="80" as="geometry" />
        </mxCell>
        <mxCell id="kKFCKPupe_m7L3E-sRk--2" value="&lt;b&gt;&lt;font style=&quot;font-size: 14px;&quot;&gt;ServiceX-B&lt;/font&gt;&lt;/b&gt;" style="whiteSpace=wrap;html=1;aspect=fixed;" vertex="1" parent="1">
          <mxGeometry x="105" y="820" width="80" height="80" as="geometry" />
        </mxCell>
        <mxCell id="kKFCKPupe_m7L3E-sRk--4" value="&lt;blockquote style=&quot;margin: 0 0 0 40px; border: none; padding: 0px;&quot;&gt;&lt;b&gt;&lt;font style=&quot;font-size: 14px;&quot;&gt;WRITE:&amp;nbsp;&lt;/font&gt;&lt;/b&gt;&lt;/blockquote&gt;&lt;blockquote style=&quot;margin: 0 0 0 40px; border: none; padding: 0px;&quot;&gt;&lt;b&gt;&lt;font style=&quot;font-size: 14px;&quot;&gt;&lt;i&gt;/iac/svc/{SVC-X-B&lt;/i&gt;&lt;/font&gt;&lt;/b&gt;&lt;b style=&quot;&quot;&gt;&lt;font style=&quot;font-size: 14px;&quot;&gt;&lt;i&gt;-NICKNAME&lt;/i&gt;&lt;/font&gt;&lt;/b&gt;&lt;b&gt;&lt;font style=&quot;font-size: 14px;&quot;&gt;&lt;i&gt;}/runtime&lt;/i&gt;&lt;/font&gt;&lt;/b&gt;&lt;/blockquote&gt;" style="text;html=1;align=right;verticalAlign=middle;whiteSpace=wrap;rounded=0;strokeColor=none;" vertex="1" parent="1">
          <mxGeometry x="20" y="745" width="313.14" height="60" as="geometry" />
        </mxCell>
        <mxCell id="z0f8_SjItQ-B4fkTCba1-2" value="&lt;b&gt;&lt;font style=&quot;font-size: 14px;&quot;&gt;AWS&lt;/font&gt;&lt;/b&gt;&lt;div&gt;&lt;b&gt;&lt;font style=&quot;font-size: 14px;&quot;&gt;Parameter Store&lt;/font&gt;&lt;/b&gt;&lt;div&gt;&lt;br&gt;&lt;/div&gt;&lt;/div&gt;" style="sketch=0;outlineConnect=0;fontColor=#232F3E;gradientColor=none;fillColor=#E7157B;strokeColor=none;dashed=0;verticalLabelPosition=top;verticalAlign=bottom;align=center;html=1;fontSize=12;fontStyle=0;aspect=fixed;pointerEvents=1;shape=mxgraph.aws4.parameter_store;labelPosition=center;" parent="1" vertex="1">
          <mxGeometry x="370" y="716" width="75" height="78" as="geometry" />
        </mxCell>
        <mxCell id="aRMo30rtuyaijZ9Dq2SD-3" value="&lt;blockquote style=&quot;margin: 0 0 0 40px; border: none; padding: 0px;&quot;&gt;&lt;b&gt;&lt;font style=&quot;font-size: 14px;&quot;&gt;READ:&amp;nbsp;&lt;/font&gt;&lt;/b&gt;&lt;/blockquote&gt;&lt;blockquote style=&quot;margin: 0 0 0 40px; border: none; padding: 0px;&quot;&gt;&lt;b&gt;&lt;font style=&quot;font-size: 14px;&quot;&gt;&lt;i&gt;/iac/svc/{&lt;/i&gt;&lt;/font&gt;&lt;/b&gt;&lt;b style=&quot;&quot;&gt;&lt;font style=&quot;font-size: 14px;&quot;&gt;&lt;i&gt;SVC-X-NICKNAME&lt;/i&gt;&lt;/font&gt;&lt;/b&gt;&lt;b&gt;&lt;font style=&quot;font-size: 14px;&quot;&gt;&lt;i&gt;}/runtime&lt;/i&gt;&lt;/font&gt;&lt;/b&gt;&lt;/blockquote&gt;" style="text;html=1;align=left;verticalAlign=middle;whiteSpace=wrap;rounded=0;strokeColor=none;" parent="1" vertex="1">
          <mxGeometry x="445" y="760" width="313.14" height="60" as="geometry" />
        </mxCell>
        <mxCell id="kKFCKPupe_m7L3E-sRk--3" value="&lt;b&gt;&lt;font style=&quot;font-size: 14px;&quot;&gt;Consumer&lt;/font&gt;&lt;/b&gt;" style="whiteSpace=wrap;html=1;aspect=fixed;" vertex="1" parent="1">
          <mxGeometry x="600" y="820" width="80" height="80" as="geometry" />
        </mxCell>
        <mxCell id="kKFCKPupe_m7L3E-sRk--5" value="" style="sketch=0;html=1;aspect=fixed;strokeColor=none;shadow=0;fillColor=#3B8DF1;verticalAlign=top;labelPosition=center;verticalLabelPosition=bottom;shape=mxgraph.gcp2.arrow_cycle" vertex="1" parent="1">
          <mxGeometry x="490" y="650" width="100" height="95" as="geometry" />
        </mxCell>
        <mxCell id="kKFCKPupe_m7L3E-sRk--6" value="&lt;u&gt;Perform&lt;/u&gt;&lt;div&gt;&lt;u&gt;Controlled&lt;/u&gt;&lt;/div&gt;&lt;div&gt;&lt;u&gt;Switchover&lt;/u&gt;&lt;div&gt;&lt;br&gt;&lt;div&gt;&lt;span style=&quot;font-weight: normal;&quot;&gt;- copy config to expected alias&lt;/span&gt;&lt;/div&gt;&lt;div&gt;&lt;span style=&quot;font-weight: normal;&quot;&gt;- revoke cache on consumer&lt;/span&gt;&lt;/div&gt;&lt;/div&gt;&lt;/div&gt;" style="text;html=1;align=left;verticalAlign=middle;whiteSpace=wrap;rounded=0;fontSize=14;fontStyle=1" vertex="1" parent="1">
          <mxGeometry x="630" y="615" width="200" height="130" as="geometry" />
        </mxCell>
        <mxCell id="z0f8_SjItQ-B4fkTCba1-12" value="&lt;span style=&quot;font-size: 18px;&quot;&gt;&lt;b&gt;Blue-Green Deployment&lt;/b&gt;&lt;/span&gt;" style="text;html=1;align=left;verticalAlign=middle;whiteSpace=wrap;rounded=0;" parent="1" vertex="1">
          <mxGeometry x="510" y="550" width="260" height="40" as="geometry" />
        </mxCell>
      </root>
    </mxGraphModel>
  </diagram>
</mxfile>
